<svg width="100" height="100" viewBox="0 0 100 100" fill="none" xmlns="http://www.w3.org/2000/svg">
<g clip-path="url(#clip0_304_105)">
<path d="M21.5626 10C15.9138 10 11.7338 14.9511 11.9209 20.3203C12.1008 25.4786 11.8672 32.1599 10.1877 37.6082C8.50312 43.0723 5.65377 46.5336 1 46.9782V51.9955C5.65377 52.44 8.50312 55.9013 10.1877 61.3659C11.8672 66.8142 12.1008 73.4947 11.9209 78.6533C11.7338 84.0218 15.9138 88.9737 21.5634 88.9737H79.4447C85.0939 88.9737 89.2728 84.0226 89.0856 78.6533C88.9062 73.4951 89.1394 66.8142 90.8189 61.3659C92.5046 55.9017 95.3462 52.4397 100 51.9955V46.9782C95.3462 46.5336 92.5046 43.0723 90.8193 37.6082C89.1394 32.1607 88.9062 25.479 89.0856 20.3203C89.2728 14.9518 85.0939 10 79.4447 10H21.5618H21.5626V10ZM68.1189 58.6133C68.1189 66.0067 62.612 70.4904 53.4731 70.4904H37.9154C37.4704 70.4903 37.0437 70.3132 36.7291 69.9981C36.4145 69.683 36.2378 69.2557 36.2378 68.8101V30.1636C36.2378 29.9429 36.2811 29.7244 36.3654 29.5204C36.4497 29.3165 36.5733 29.1313 36.7291 28.9752C36.885 28.8191 37.07 28.6953 37.2736 28.6108C37.4772 28.5264 37.6954 28.4829 37.9158 28.4829H53.3841C61.0044 28.4829 66.0055 32.6168 66.0055 38.9632C66.0055 43.4178 62.641 47.4057 58.355 48.1039V48.3367C64.1902 48.9776 68.1189 53.024 68.1189 58.6133V58.6133ZM51.7762 33.8096H42.906V46.3567H50.3774C56.1527 46.3567 59.3377 44.0277 59.3377 39.8647C59.3377 35.9639 56.5989 33.8096 51.7766 33.8096H51.7762ZM42.906 51.3352V65.1621H52.103C58.1157 65.1621 61.3014 62.7461 61.3014 58.2051C61.3014 53.6634 58.0271 51.3344 51.7162 51.3344H42.906V51.3352Z" fill="#7E13F8"/>
</g>
<defs>
<clipPath id="clip0_304_105">
<rect width="99" height="79" fill="white" transform="translate(1 10)"/>
</clipPath>
</defs>
</svg>
