<svg width="100" height="100" viewBox="0 0 100 100" fill="none" xmlns="http://www.w3.org/2000/svg">
<path d="M18.4438 85.0031L11.425 6.25H88.575L81.5469 84.9906L49.9531 93.75L18.4438 85.0031Z" fill="#1572B6"/>
<path d="M50 87.0563L75.5313 79.9782L81.5375 12.6907H50V87.0563Z" fill="#33A9DC"/>
<path d="M50 41.2219H62.7813L63.6625 31.3312H50V21.6719H74.2188L73.9875 24.2625L71.6156 50.8812H50V41.2219V41.2219Z" fill="white"/>
<path d="M50.0594 66.3063L50.0156 66.3188L39.2594 63.4126L38.5719 55.7095H28.875L30.2281 70.8751L50.0125 76.3688L50.0594 76.3563V66.3063V66.3063Z" fill="#EBEBEB"/>
<path d="M61.9594 50.4719L60.7969 63.4063L50.025 66.3126V76.3626L69.825 70.8751L69.9719 69.2438L71.65 50.4719H61.9594V50.4719Z" fill="white"/>
<path d="M50.0344 21.6719V31.3312H26.7031L26.5094 29.1594L26.0687 24.2625L25.8375 21.6719H50.0344V21.6719ZM50 41.2219V50.8812H39.3781L39.1844 48.7094L38.7469 43.8125L38.5156 41.2219H50V41.2219Z" fill="#EBEBEB"/>
</svg>
