<svg width="100" height="100" viewBox="0 0 100 100" fill="none" xmlns="http://www.w3.org/2000/svg">
<g clip-path="url(#clip0_304_75)">
<path d="M78.4766 77.0534C78.4766 82.414 65.8984 86.7333 50.3906 86.7333C34.8828 86.7333 22.3047 82.3755 22.3047 77.0534C22.3047 71.6929 34.8828 67.3735 50.3906 67.3735C65.8984 67.3735 78.4766 71.6929 78.4766 77.0534Z" fill="#9EDCF2"/>
<path d="M78.4766 77.0534C78.4766 82.414 65.8984 86.7333 50.3906 86.7333C34.8828 86.7333 22.3047 82.3755 22.3047 77.0534C22.3047 71.6929 34.8828 67.3735 50.3906 67.3735C65.8984 67.3735 78.4766 71.6929 78.4766 77.0534Z" fill="#7DBCE7"/>
<path d="M18.3203 48.5537L17.5 51.3304C17.5 51.3304 17.3047 52.3331 18.2422 52.5259C19.2578 52.4874 19.1797 51.5618 19.1016 51.2919L18.3203 48.5537Z" fill="#9EDCF2"/>
<path d="M99.9219 36.8685L100 36.5214C91.7578 34.9017 83.3203 34.8631 78.2031 35.0945C79.0234 32.125 79.2969 28.6541 79.2969 24.8361C79.2969 19.3213 77.1875 14.9248 73.8281 11.6082C74.4141 9.71848 75.1953 5.51485 73.0469 0.154268C73.0469 0.154268 69.2187 -1.04126 60.5078 4.70498C57.1094 3.85654 53.4766 3.43232 49.8437 3.43232C45.8594 3.43232 41.8359 3.93367 38.0469 4.93637C29.0625 -1.11839 25.1172 0.115703 25.1172 0.115703C22.5391 6.47899 24.1406 11.2225 24.6094 12.3795C21.5625 15.619 19.7266 19.7455 19.7266 24.7975C19.7266 28.6155 20.1563 32.0478 21.25 35.0174C16.0938 34.8245 7.96875 34.9017 0 36.4828L0.078125 36.8299C8.04687 35.2488 16.25 35.2102 21.3672 35.403C21.6016 36.0201 21.875 36.6371 22.1484 37.2156C17.0703 37.3698 8.4375 38.0255 0.15625 40.3394L0.273437 40.6865C8.63281 38.3725 17.3437 37.7555 22.3828 37.6012C25.4297 43.1547 31.3672 46.7798 41.9922 47.8982C40.4687 48.9009 38.9453 50.5978 38.3203 53.4902C36.25 54.4543 29.7656 56.8454 25.8594 50.2121C25.8594 50.2121 23.6719 46.2784 19.4922 45.9699C19.4922 45.9699 15.4297 45.8928 19.2188 48.4767C19.2188 48.4767 21.9141 49.7493 23.7891 54.4929C23.7891 54.4929 26.25 62.5916 38.0078 59.9692V68.2607C38.0078 68.2607 37.7734 71.2302 35 72.1944C35 72.1944 33.3594 73.3128 35.1172 73.9298C35.1172 73.9298 42.7344 74.5469 42.7344 68.3764V59.275C42.7344 59.275 42.4219 55.6498 44.2187 54.4157V69.3791C44.2187 69.3791 44.1016 72.9657 42.2266 74.3155C42.2266 74.3155 40.9766 76.5137 43.7109 75.9352C43.7109 75.9352 48.9453 75.2025 49.1797 69.1477L49.2969 53.9915H50.5469L50.6641 69.1477C50.8984 75.1639 56.1328 75.9352 56.1328 75.9352C58.8672 76.5523 57.6172 74.3155 57.6172 74.3155C55.7422 72.9657 55.625 69.3791 55.625 69.3791V54.5314C57.4219 55.9198 57.1094 59.275 57.1094 59.275V68.3764C57.1094 74.5469 64.7266 73.9298 64.7266 73.9298C66.4844 73.3128 64.8438 72.1944 64.8438 72.1944C62.1094 71.1917 61.8359 68.2607 61.8359 68.2607V56.3054C61.8359 51.639 59.8437 49.1708 57.8906 47.8982C69.2187 46.7798 74.6484 43.1932 77.1484 37.5627C82.1094 37.6784 91.0547 38.2954 99.5703 40.6865L99.6875 40.3394C91.2109 37.9869 82.3437 37.3698 77.3047 37.2156C77.5391 36.6371 77.7344 36.0586 77.9297 35.4416C83.1641 35.2488 91.6406 35.2488 99.9219 36.8685V36.8685Z" fill="#010101"/>
<path d="M68.2031 24.566C70.625 26.7642 72.0703 29.3866 72.0703 32.2019C72.0703 45.4684 62.0703 45.8155 49.7266 45.8155C37.3828 45.8155 27.3828 43.9644 27.3828 32.2019C27.3828 29.3866 28.7891 26.7642 31.2109 24.6045C35.2344 20.9794 42.0313 22.9077 49.7266 22.9077C57.4219 22.9077 64.1797 20.9408 68.2031 24.566V24.566Z" fill="#F5CCB3"/>
<path d="M42.3047 32.8963C42.3047 36.56 40.2344 39.491 37.6563 39.491C35.0781 39.491 33.0078 36.5215 33.0078 32.8963C33.0078 29.2326 35.0781 26.3016 37.6563 26.3016C40.2344 26.2631 42.3047 29.2326 42.3047 32.8963V32.8963Z" fill="white"/>
<path d="M40.8203 32.9736C40.8203 35.4032 39.4141 37.3701 37.7344 37.3701C36.0156 37.3701 34.6484 35.4032 34.6484 32.9736C34.6484 30.544 36.0547 28.5771 37.7344 28.5771C39.4141 28.5771 40.8203 30.544 40.8203 32.9736Z" fill="#AF5C51"/>
<path d="M67.2656 32.8963C67.2656 36.56 65.1953 39.491 62.6172 39.491C60.0391 39.491 57.9687 36.5215 57.9687 32.8963C57.9687 29.2326 60.0391 26.3016 62.6172 26.3016C65.1562 26.2631 67.2656 29.2326 67.2656 32.8963V32.8963Z" fill="white"/>
<path d="M65.7422 32.9736C65.7422 35.4032 64.3359 37.3701 62.6562 37.3701C60.9375 37.3701 59.5703 35.4032 59.5703 32.9736C59.5703 30.544 60.9766 28.5771 62.6562 28.5771C64.375 28.5771 65.7422 30.544 65.7422 32.9736ZM50.9766 38.7584C50.9766 39.3755 50.4687 39.9154 49.8047 39.9154C49.1797 39.9154 48.6328 39.414 48.6328 38.7584C48.6328 38.1028 49.1406 37.6014 49.8047 37.6014C50.4297 37.6014 50.9766 38.1028 50.9766 38.7584ZM47.1094 41.6508C47.0312 41.458 47.1484 41.2652 47.3437 41.188C47.5391 41.1109 47.7344 41.2266 47.8125 41.4194C48.125 42.2679 48.9062 42.8078 49.8047 42.8078C50.7031 42.8078 51.4844 42.2293 51.7969 41.4194C51.875 41.2266 52.0703 41.1109 52.2656 41.188C52.4609 41.2652 52.5781 41.458 52.5 41.6508C52.1094 42.7692 51.0156 43.5405 49.8047 43.5405C48.5937 43.5405 47.5 42.7692 47.1094 41.6508V41.6508Z" fill="#AF5C51"/>
<path d="M21.2891 46.8954C21.2891 47.2039 20.9375 47.4353 20.4687 47.4353C20.0391 47.4353 19.6484 47.2039 19.6484 46.8954C19.6484 46.5869 20 46.3555 20.4687 46.3555C20.9375 46.3555 21.2891 46.5869 21.2891 46.8954ZM23.5547 48.1295C23.5547 48.438 23.2031 48.6694 22.7344 48.6694C22.3047 48.6694 21.9141 48.438 21.9141 48.1295C21.9141 47.821 22.2656 47.5896 22.7344 47.5896C23.2031 47.5896 23.5547 47.821 23.5547 48.1295ZM24.9219 49.7492C24.9219 50.0577 24.5703 50.2891 24.1016 50.2891C23.6719 50.2891 23.2812 50.0577 23.2812 49.7492C23.2812 49.4407 23.6328 49.2093 24.1016 49.2093C24.5703 49.1707 24.9219 49.4407 24.9219 49.7492ZM26.1719 51.6004C26.1719 51.9089 25.8203 52.1403 25.3516 52.1403C24.9219 52.1403 24.5312 51.9089 24.5312 51.6004C24.5312 51.2918 24.8828 51.0604 25.3516 51.0604C25.8203 51.0219 26.1719 51.2918 26.1719 51.6004ZM27.5391 53.2972C27.5391 53.6058 27.1875 53.8372 26.7187 53.8372C26.2891 53.8372 25.8984 53.6058 25.8984 53.2972C25.8984 52.9887 26.25 52.7573 26.7187 52.7573C27.1875 52.7573 27.5391 52.9887 27.5391 53.2972ZM29.4141 54.8013C29.4141 55.1098 29.0625 55.3412 28.5937 55.3412C28.1641 55.3412 27.7734 55.1098 27.7734 54.8013C27.7734 54.4928 28.125 54.2614 28.5937 54.2614C29.0625 54.2228 29.4141 54.4928 29.4141 54.8013ZM32.0312 55.7654C32.0312 56.0739 31.6797 56.3053 31.2109 56.3053C30.7812 56.3053 30.3906 56.0739 30.3906 55.7654C30.3906 55.4569 30.7422 55.2255 31.2109 55.2255C31.6797 55.2255 32.0312 55.4569 32.0312 55.7654ZM34.6484 55.7654C34.6484 56.0739 34.2969 56.3053 33.8281 56.3053C33.3984 56.3053 33.0078 56.0739 33.0078 55.7654C33.0078 55.4569 33.3594 55.2255 33.8281 55.2255C34.2969 55.2255 34.6484 55.4569 34.6484 55.7654ZM37.3047 55.3412C37.3047 55.6497 36.9531 55.8811 36.4844 55.8811C36.0547 55.8811 35.6641 55.6497 35.6641 55.3412C35.6641 55.0327 36.0156 54.8013 36.4844 54.8013C36.9141 54.8013 37.3047 55.0327 37.3047 55.3412Z" fill="#C4E5D9"/>
</g>
<defs>
<clipPath id="clip0_304_75">
<rect width="100" height="100" fill="white"/>
</clipPath>
</defs>
</svg>
