<svg width="100" height="100" viewBox="0 0 100 100" fill="none" xmlns="http://www.w3.org/2000/svg">
<path d="M90 4L82.7118 86.2163L49.9511 95.3619L17.2806 86.229L10 4H90Z" fill="#E44D26"/>
<path d="M50 88.3713L76.4724 80.9811L82.7003 10.7234H50V88.3713Z" fill="#F16529"/>
<path d="M35.832 30.8936H50V20.8086H24.8867L25.1263 23.5142L27.588 51.306H50V41.2209H36.7473L35.832 30.8936V30.8936ZM38.0892 56.3486H28.0355L29.4385 72.1837L49.9539 77.9183L50 77.9057V67.4129L49.9561 67.4246L38.8023 64.3919L38.0892 56.3486Z" fill="#EBEBEB"/>
<path d="M49.9655 51.306H62.2981L61.1353 64.3856L49.9652 67.4215V77.9136L70.4969 72.1837L70.6474 70.4798L73.0012 43.929L73.2455 41.2209H49.9655V51.306ZM49.9655 30.869V30.8936H74.1568L74.3575 28.627L74.8141 23.5142L75.0534 20.8086H49.9655V30.8693V30.869Z" fill="white"/>
</svg>
