<svg width="100" height="100" viewBox="0 0 100 100" fill="none" xmlns="http://www.w3.org/2000/svg">
<g clip-path="url(#clip0_304_97)">
<path d="M4 4H96V96H4V4Z" fill="#F7DF1E"/>
<path d="M28.1903 80.8818L35.2304 76.621C36.5888 79.0292 37.8244 81.0668 40.7881 81.0668C43.629 81.0668 45.4205 79.9556 45.4205 75.6331V46.2369H54.066V75.7553C54.066 84.7098 48.8169 88.7858 41.1587 88.7858C34.2425 88.7858 30.2279 85.204 28.1899 80.881L28.1903 80.8818ZM58.7619 79.9553L65.8014 75.8796C67.6547 78.9059 70.0632 81.129 74.3239 81.129C77.9065 81.129 80.1907 79.3379 80.1907 76.8675C80.1907 73.9034 77.844 72.8533 73.8916 71.1247L71.7307 70.1975C65.493 67.5428 61.3555 64.2078 61.3555 57.1677C61.3555 50.6831 66.2959 45.7424 74.0156 45.7424C79.5119 45.7424 83.4643 47.6572 86.3048 52.6593L79.573 56.9826C78.0905 54.3272 76.4856 53.2774 74.0152 53.2774C71.4831 53.2774 69.8774 54.8831 69.8774 56.9826C69.8774 59.5762 71.4831 60.6267 75.1882 62.2323L77.3495 63.1585C84.6987 66.3084 88.8362 69.5194 88.8362 76.7443C88.8362 84.5262 82.7225 88.7869 74.509 88.7869C66.4809 88.7869 61.2934 84.9581 58.7616 79.9556" fill="black"/>
</g>
<defs>
<clipPath id="clip0_304_97">
<rect width="92" height="92" fill="white" transform="translate(4 4)"/>
</clipPath>
</defs>
</svg>
