<svg width="100" height="100" viewBox="0 0 100 100" fill="none" xmlns="http://www.w3.org/2000/svg">
<g clip-path="url(#clip0_304_99)">
<path fill-rule="evenodd" clip-rule="evenodd" d="M95.6481 40.6902L99.8317 40.7133C99.8317 40.7133 92.0535 51.2626 91.4184 52.1223C91.2121 52.4007 90.8988 52.701 90.7399 53.0732C90.3381 54.0088 89.9256 56.0612 89.9256 56.0612L86.0977 56.0804C86.0977 56.0804 86.6934 53.9409 86.6688 52.8014C86.6473 51.806 86.1395 50.8118 85.8547 49.8134C85.5668 48.8027 85.176 46.8252 85.176 46.8252H89.1115L89.6543 48.9984L95.6481 40.6902" fill="#1A1918"/>
<path fill-rule="evenodd" clip-rule="evenodd" d="M87.726 42.915C88.4981 43.3808 88.9719 45.9507 88.9719 45.9507C88.9719 45.9507 84.932 46.0103 82.7336 46.0103H80.8338L78.5268 56.0611H74.9986C74.9986 56.0611 77.1943 45.1384 77.7127 43.1581C77.8807 42.5169 78.8635 42.627 80.5231 42.627H83.1732C84.8846 42.627 86.8848 42.4083 87.726 42.915M71.3008 47.81C71.3008 47.81 71.4107 47.1649 70.9277 46.4177C70.515 45.7808 70.134 45.6326 69.0482 45.5986C65.9828 45.5022 66.0424 47.776 66.0424 47.776L71.3008 47.81ZM74.6254 45.2061C75.0746 46.828 74.2184 50.6391 74.2184 50.6391C74.2184 50.6391 69.7469 50.5644 67.2977 50.6391C66.5361 50.6623 65.6246 50.5562 65.3979 50.9108C65.0789 51.4077 65.5145 52.1727 65.8836 52.4958C66.3084 52.8678 67.1359 52.9102 67.4334 52.948C69.4213 53.2007 73.5818 53.0133 73.5818 53.0133L72.8611 56.2075C72.8611 56.2075 66.9816 56.5027 64.0408 55.8001C63.4602 55.6617 62.9158 55.382 62.548 54.9853C62.4477 54.8769 62.3605 54.7289 62.2656 54.601C62.1898 54.499 61.9688 54.1637 61.8695 53.8986C61.1979 52.1072 61.9482 48.6752 62.6838 46.836C62.7691 46.623 62.8764 46.3526 62.9893 46.1229C63.1303 45.8365 63.2496 45.5132 63.3623 45.3419C63.4381 45.2239 63.532 45.1478 63.6107 45.0364C63.7016 44.9046 63.8072 44.777 63.9051 44.663C64.1766 44.3479 64.4846 44.125 64.8551 43.8482C66.0803 42.9298 68.2977 42.2169 70.9615 42.4898C71.9645 42.593 73.4791 42.9515 74.2184 43.9839C74.4164 44.2595 74.5143 44.8069 74.6254 45.2063V45.2061ZM58.4432 42.6145L61.8643 42.5944C61.8643 42.5944 59.9576 51.6468 58.9859 56.0611H55.0504C52.3 56.0611 49.8506 56.402 48.8084 54.4311C47.7975 52.5175 48.7623 49.3705 49.2154 47.2325C49.5357 45.7194 50.2104 42.6268 50.2104 42.6268L53.7549 42.5944C53.7549 42.5944 52.7533 47.4092 52.3365 49.8133C52.1873 50.6745 51.8795 51.4853 52.201 52.122C52.5063 52.7281 52.9338 52.7714 54.2363 52.8014C54.649 52.8111 56.0006 52.8014 56.0006 52.8014L58.4432 42.6145M42.4305 49.134C42.7887 47.8602 43.3111 46.4789 43.2447 45.331C43.1729 44.1033 42.1443 42.9855 41.4807 42.7506C39.4818 42.0443 37.6105 43.0317 36.8668 43.8371C35.9047 44.8802 35.5789 46.0987 35.2383 47.7762C34.9848 49.0214 34.777 50.3361 35.2383 51.3072C36.0551 53.0242 38.6023 52.6493 41.3449 52.6657C41.752 51.5737 42.0885 50.3472 42.4305 49.134V49.134ZM47.1801 44.1088C47.5707 46.9528 46.0715 50.0919 45.0387 52.8217C46.0918 52.9169 47.0146 52.807 47.0811 52.8856C47.1502 52.9875 46.3752 56.144 46.1051 56.1522C45.2693 56.1739 42.4998 56.197 41.3449 56.197C37.5764 56.197 34.051 56.4427 32.2531 54.5672C31.523 53.8052 31.0182 52.4984 30.8959 51.579C30.6924 50.0442 30.9475 48.3544 31.3031 46.9612C31.6248 45.7032 32.0371 44.5162 32.6602 43.4295C34.2438 40.6629 36.9984 38.6093 41.6162 39.0834C42.5119 39.1757 43.7982 39.5682 44.6018 40.0341C44.6572 40.0667 44.8516 40.2215 44.8961 40.2487C45.9818 40.9401 46.9711 42.5903 47.1801 44.1088V44.1088ZM30.5064 42.6309C30.2785 43.6699 30.0506 44.8477 29.8104 45.8744H26.0107C26.3051 44.7363 26.5305 43.6048 26.825 42.6147C28.0408 42.6147 29.1713 42.6309 30.5066 42.6309M25.875 46.8253H29.5391C29.06 49.4792 28.1113 53.7602 27.3678 56.7402C26.9023 58.6052 26.5916 59.966 25.3322 60.9507C25.2195 61.039 25.1545 60.997 25.0607 61.0865C24.8287 61.308 23.7553 61.5649 23.1611 61.6298C22.1949 61.7346 21.1025 61.6435 19.915 61.619C20.2258 60.4823 20.5773 59.1172 20.8543 58.0983C23.7488 58.449 23.8221 55.7106 24.3824 53.0731C24.7066 51.5491 25.6893 47.4364 25.875 46.8253" fill="#1A1918"/>
<path fill-rule="evenodd" clip-rule="evenodd" d="M17.3258 53.7525L17.2473 53.956C15.9094 56.5638 13.5385 58.1639 10.1568 58.2345C8.57599 58.2669 7.06974 57.8611 6.08575 57.4195C3.96231 56.4649 2.17618 54.6938 1.20079 52.8017C-0.198429 50.0893 -0.450772 46.316 2.4586 43.4978C2.50352 43.4978 2.10567 44.1089 2.15059 44.1089L2.07052 44.3697C-0.0259678 50.9394 6.43321 56.5693 12.7121 55.9254C14.2211 55.7707 16.1453 54.9436 17.3258 53.7525Z" fill="#21609B"/>
<path fill-rule="evenodd" clip-rule="evenodd" d="M13.5262 51.0357C15.1059 51.0466 16.7559 50.3077 17.733 49.27C16.8781 51.4419 14.403 52.8381 11.0838 52.3939C8.30452 52.0217 5.65705 49.2225 5.3844 46.4179C5.18498 44.3764 5.89573 43.1581 7.06701 41.6804C6.65998 42.4532 6.50784 43.0494 6.46994 43.4296C6.02502 47.8453 9.99416 51.0126 13.5262 51.0357" fill="#21609B"/>
<path fill-rule="evenodd" clip-rule="evenodd" d="M17.5742 45.5513C17.3287 46.1151 15.9149 47.1797 15.2905 47.3126C12.818 47.8399 11.2346 46.6664 10.4051 45.3312C10.2819 45.1316 10.0539 44.587 10.0131 44.4484C9.69143 43.3536 9.83928 41.6978 10.7988 40.8408C10.5098 41.656 10.4676 42.6024 10.6197 43.2178C10.7119 43.59 10.9928 44.2394 11.2738 44.6479C11.7852 45.3924 12.1094 45.5732 12.7664 45.9683C13.0623 46.1462 13.3797 46.2889 13.5168 46.3282C14.1397 46.5115 15.4547 46.9952 17.5744 45.5513" fill="#21609B"/>
</g>
<defs>
<clipPath id="clip0_304_99">
<rect width="100" height="22.6766" fill="white" transform="translate(0 39)"/>
</clipPath>
</defs>
</svg>
