<svg width="100" height="100" viewBox="0 0 100 100" fill="none" xmlns="http://www.w3.org/2000/svg">
<path d="M82.3977 34.5226C81.3441 34.1614 80.2816 33.8269 79.2112 33.5192C79.391 32.7851 79.5565 32.0599 79.7035 31.3475C82.1158 19.6481 80.5388 10.2228 75.1522 7.1196C69.9875 4.14463 61.5412 7.24672 53.011 14.6637C52.1703 15.396 51.3482 16.1493 50.5456 16.9231C50.0083 16.4086 49.4616 15.904 48.9056 15.4097C39.9654 7.47931 31.0043 4.1369 25.6235 7.24903C20.4636 10.2333 18.9356 19.0937 21.1074 30.1814C21.3235 31.2796 21.5675 32.372 21.8391 33.4578C20.5707 33.8179 19.3467 34.2011 18.1753 34.6091C7.69371 38.2602 1 43.9818 1 49.9167C1 56.0463 8.18601 62.1945 19.1031 65.9224C19.9881 66.2234 20.8806 66.5023 21.7796 66.7589C21.4876 67.9283 21.2284 69.1056 21.0023 70.2895C18.9318 81.1848 20.5486 89.8358 25.6947 92.8011C31.0098 95.8634 39.9306 92.7161 48.6167 85.1299C49.321 84.5132 50.0099 83.879 50.6825 83.2279C51.5517 84.0657 52.4441 84.8792 53.3586 85.6674C61.7729 92.9008 70.0827 95.8217 75.2237 92.8483C80.5337 89.7771 82.2597 80.4836 80.019 69.1768C79.8425 68.2909 79.6446 67.4095 79.4254 66.5333C80.0519 66.3478 80.6668 66.157 81.2662 65.9584C92.6156 62.2018 100 56.1282 100 49.9167C100 43.9602 93.0901 38.1999 82.3977 34.5226V34.5226ZM79.9363 61.948C79.3949 62.1268 78.8395 62.2995 78.2734 62.4676C77.0204 58.5047 75.3297 54.2911 73.2603 49.9372C75.2349 45.6872 76.8607 41.5273 78.0785 37.5903C79.0913 37.8831 80.0739 38.1918 81.0214 38.5175C90.1828 41.6687 95.7708 46.327 95.7708 49.9167C95.7708 53.7401 89.7357 58.7037 79.9363 61.948V61.948ZM75.8703 69.9974C76.8611 74.9969 77.0022 79.5173 76.346 83.0513C75.7566 86.2268 74.5709 88.3437 73.1045 89.1917C69.9848 90.9961 63.3128 88.6508 56.1171 82.4644C55.2664 81.7317 54.4364 80.9754 53.6278 80.1965C56.4176 77.1485 59.2054 73.6052 61.9264 69.6698C66.7124 69.2455 71.2339 68.5516 75.3343 67.6047C75.5318 68.3979 75.7105 69.1957 75.8703 69.9974V69.9974ZM34.7513 88.88C31.7031 89.9552 29.2753 89.9861 27.8077 89.1407C24.685 87.3415 23.3868 80.3951 25.1575 71.0776C25.368 69.9766 25.6091 68.8816 25.8803 67.794C29.9355 68.6903 34.4241 69.3348 39.2213 69.7235C41.9609 73.5743 44.8292 77.1137 47.7199 80.2131C47.1056 80.807 46.4767 81.3857 45.8339 81.9487C41.9926 85.303 38.1436 87.683 34.7513 88.88V88.88ZM20.4713 61.9244C15.6439 60.2758 11.6572 58.1334 8.92464 55.7956C6.46898 53.6949 5.22954 51.609 5.22954 49.9167C5.22954 46.3151 10.6038 41.7212 19.5675 38.5991C20.6554 38.2204 21.7939 37.863 22.9753 37.5277C24.2143 41.5536 25.8393 45.7629 27.8004 50.0195C25.8138 54.339 24.1656 58.6156 22.9146 62.689C22.094 62.4542 21.2793 62.1992 20.4713 61.9244V61.9244ZM25.2581 29.3697C23.3976 19.8703 24.6332 12.7044 27.7428 10.9059C31.0546 8.99036 38.3783 11.7215 46.0976 18.5694C46.601 19.0169 47.0962 19.4736 47.583 19.939C44.7066 23.0249 41.8646 26.5381 39.1494 30.3661C34.4933 30.7973 30.0364 31.4896 25.9387 32.4173C25.6863 31.4074 25.4593 30.3914 25.2581 29.3701V29.3697ZM67.9623 39.905C66.9944 38.2347 65.9907 36.5855 64.9517 34.9584C68.1104 35.3575 71.1369 35.8872 73.9789 36.5347C73.1258 39.2671 72.0623 42.1234 70.8105 45.052C69.8955 43.3176 68.9459 41.6015 67.9623 39.905V39.905ZM50.5476 22.9588C52.4982 25.0703 54.4519 27.4275 56.3735 29.9852C52.4754 29.8012 48.5707 29.8005 44.6725 29.9828C46.5961 27.4487 48.5664 25.0946 50.5476 22.9588ZM33.0211 39.9339C32.0498 41.6169 31.1179 43.3222 30.2263 45.0486C28.995 42.1304 27.9411 39.2609 27.0807 36.4899C29.9053 35.8586 32.9174 35.3424 36.0561 34.9507C35.0055 36.5877 33.9936 38.2491 33.0211 39.9335V39.9339ZM36.1462 65.1833C32.9035 64.8217 29.8461 64.3322 27.0223 63.7179C27.8963 60.8974 28.9733 57.9669 30.2313 54.9861C31.1265 56.7138 32.0622 58.4202 33.0377 60.1039C34.0409 61.8348 35.0796 63.5301 36.1462 65.1833ZM50.6644 77.1721C48.6596 75.0116 46.6603 72.6212 44.7077 70.0503C46.6034 70.1245 48.5359 70.1624 50.5 70.1624C52.5179 70.1624 54.5126 70.1172 56.476 70.0298C54.5482 72.647 52.6018 75.0409 50.6644 77.1721ZM70.8503 54.8339C72.1737 57.8475 73.2889 60.7626 74.1745 63.5347C71.3043 64.1892 68.2051 64.7162 64.9397 65.1076C65.9861 63.4503 66.9993 61.7724 67.9789 60.0749C68.9748 58.3494 69.9322 56.602 70.8503 54.8339V54.8339ZM64.3155 57.9638C62.8159 60.5665 61.232 63.1197 59.5662 65.6195C56.5489 65.833 53.5249 65.9391 50.5 65.9375C47.419 65.9375 44.4223 65.8417 41.5366 65.6547C39.8274 63.1607 38.2133 60.6029 36.6976 57.987H36.698C35.1895 55.3849 33.7804 52.7265 32.4739 50.0175C33.7771 47.308 35.1819 44.6483 36.6852 42.0442L36.6849 42.0446C38.1876 39.4399 39.7889 36.8931 41.4852 34.4098C44.4293 34.1872 47.4484 34.0713 50.4996 34.0713H50.5C53.5651 34.0713 56.5881 34.1884 59.5314 34.4125C61.2106 36.8921 62.8016 39.4301 64.3016 42.0218C65.81 44.6202 67.2333 47.2668 68.5694 49.9577C67.2471 52.676 65.8282 55.3464 64.3155 57.9638V57.9638ZM73.0399 10.78C76.3549 12.6901 77.6442 20.393 75.5613 30.4944C75.4283 31.1388 75.279 31.7953 75.1166 32.461C71.0089 31.5136 66.5488 30.8093 61.8792 30.3715C59.159 26.5014 56.3402 22.9828 53.5106 19.9367C54.2522 19.2225 55.0114 18.5269 55.7876 17.8504C63.0966 11.4959 69.9276 8.98688 73.0399 10.78V10.78ZM50.5 41.0845C55.3823 41.0845 59.3404 45.0389 59.3404 49.9167C59.3404 54.7945 55.3823 58.7489 50.5 58.7489C45.6177 58.7489 41.6596 54.7945 41.6596 49.9167C41.6596 45.0389 45.6177 41.0845 50.5 41.0845V41.0845Z" fill="#00D8FF"/>
</svg>
