<svg width="100" height="100" viewBox="0 0 100 100" fill="none" xmlns="http://www.w3.org/2000/svg">
<g clip-path="url(#clip0_304_69)">
<path d="M89.65 6.25H10.35C8.08563 6.25 6.25 8.08563 6.25 10.35V89.65C6.25 91.9144 8.08563 93.75 10.35 93.75H89.65C91.9144 93.75 93.75 91.9144 93.75 89.65V10.35C93.75 8.08563 91.9144 6.25 89.65 6.25Z" fill="#3178C6"/>
<path fill-rule="evenodd" clip-rule="evenodd" d="M57.0156 74.2468V83.8343C58.7576 84.6941 60.6141 85.2992 62.5281 85.6311C64.74 86.0395 66.9852 86.2403 69.2344 86.2311C71.4265 86.2416 73.6136 86.0205 75.7594 85.5718C77.6859 85.1825 79.524 84.4409 81.1813 83.3843C82.7198 82.3911 83.9879 81.0317 84.8719 79.428C86.4551 76.1072 86.6639 72.2957 85.4531 68.8218C84.9422 67.5227 84.1809 66.3366 83.2125 65.3311C82.1731 64.2619 80.9923 63.3399 79.7031 62.5905C78.2189 61.7212 76.6767 60.9548 75.0875 60.2968C73.8375 59.778 72.7125 59.2738 71.7125 58.7843C70.8243 58.359 69.9743 57.8582 69.1719 57.2874C68.5434 56.8468 67.9975 56.2988 67.5594 55.6686C67.1808 55.0965 66.9837 54.4234 66.9937 53.7374C66.9854 53.106 67.1613 52.4859 67.5 51.953C67.8678 51.3953 68.3585 50.9292 68.9344 50.5905C69.6383 50.176 70.4044 49.8774 71.2031 49.7061C72.1838 49.4883 73.1861 49.3834 74.1906 49.3936C75.0354 49.3965 75.8791 49.4571 76.7156 49.5749C77.619 49.697 78.5129 49.8818 79.3906 50.128C80.2834 50.3755 81.1567 50.6888 82.0031 51.0655C82.8245 51.4316 83.6101 51.8731 84.35 52.3843V43.4374C82.8097 42.8546 81.2124 42.4357 79.5844 42.1874C77.6184 41.9013 75.6334 41.7666 73.6469 41.7843C71.4754 41.7726 69.3102 42.0191 67.1969 42.5186C65.2867 42.9551 63.4704 43.731 61.8344 44.8093C60.3146 45.8217 59.0597 47.1837 58.175 48.7811C57.2374 50.5551 56.7735 52.541 56.8281 54.5468C56.7589 57.1992 57.6325 59.7903 59.2938 61.8593C61.3318 64.1533 63.9018 65.912 66.7781 66.9811C68.0906 67.5228 69.3146 68.053 70.45 68.5718C71.4744 69.0276 72.4591 69.568 73.3937 70.1874C74.1476 70.6778 74.8097 71.2965 75.35 72.0155C75.8251 72.6676 76.0771 73.4556 76.0687 74.2624C76.0731 74.867 75.9178 75.462 75.6187 75.9874C75.2864 76.552 74.8194 77.0255 74.2594 77.3655C73.5586 77.7927 72.792 78.101 71.9906 78.278C70.9467 78.5114 69.879 78.6215 68.8094 78.6061C66.7103 78.6023 64.628 78.2322 62.6562 77.5124C60.5963 76.769 58.686 75.6631 57.0156 74.2468V74.2468ZM40.9094 50.378H53.4094V42.4811H18.5562V50.378H31V85.5468H40.9094V50.378Z" fill="white"/>
</g>
<defs>
<clipPath id="clip0_304_69">
<rect width="100" height="100" fill="white"/>
</clipPath>
</defs>
</svg>
